<?xml version="1.0" standalone="no"?>
<!DOCTYPE svg PUBLIC "-//W3C//DTD SVG 20010904//EN"
 "http://www.w3.org/TR/2001/REC-SVG-20010904/DTD/svg10.dtd">
<svg version="1.0" xmlns="http://www.w3.org/2000/svg"
 width="720.000000pt" height="490.000000pt" viewBox="0 0 720.000000 490.000000"
 preserveAspectRatio="xMidYMid meet">

<g transform="translate(0.000000,490.000000) scale(0.100000,-0.100000)"
fill="#000000" stroke="none">
<path d="M5514 3296 c-172 -39 -308 -179 -344 -353 -19 -92 -9 -217 24 -288
60 -132 166 -206 511 -360 110 -49 191 -94 251 -139 8 -6 44 1 105 22 87 30
95 31 107 15 6 -9 12 -12 12 -7 0 6 -5 15 -11 21 -8 8 -1 10 23 8 50 -4 50 -4
43 -15 -3 -5 -1 -10 4 -10 14 0 14 17 0 26 -10 6 120 74 143 74 5 0 22 9 38
20 15 11 31 16 35 12 5 -4 5 -2 2 4 -9 16 39 35 64 26 21 -8 20 -9 -11 -35
-27 -23 -35 -25 -53 -15 -19 10 -20 9 -9 -4 11 -13 8 -17 -15 -23 -19 -4 -23
-9 -14 -14 9 -6 -16 -29 -83 -75 -52 -37 -99 -72 -102 -78 -11 -18 152 98 251
177 93 75 192 171 184 179 -2 2 -33 -14 -69 -36 -36 -22 -97 -57 -137 -78 -40
-21 -69 -41 -65 -45 4 -4 1 -6 -7 -3 -8 2 -58 -15 -110 -39 l-96 -43 -20 58
c-59 172 -166 261 -465 388 -261 110 -305 138 -340 216 -66 145 47 313 222
334 111 13 256 -48 361 -152 69 -68 103 -124 137 -224 20 -59 30 -75 45 -75
28 0 30 40 11 189 -9 67 -16 157 -16 199 0 89 -10 100 -66 73 -49 -23 -73 -20
-172 18 -48 19 -105 39 -127 44 -72 19 -177 22 -241 8z m1091 -896 c-15 -16
-33 -27 -38 -23 -6 3 -7 1 -3 -5 9 -15 -11 -25 -31 -14 -14 9 -13 11 8 23 13
7 27 12 30 12 4 -1 15 7 24 17 10 11 23 20 28 20 6 0 -2 -13 -18 -30z"/>
<path d="M937 3275 c-32 -31 -15 -49 67 -70 77 -20 132 -50 153 -82 16 -24 18
-67 23 -437 4 -352 7 -410 20 -413 12 -4 13 -3 1 5 -17 12 32 41 169 102 l95
42 0 331 c0 183 3 344 7 359 14 48 56 87 114 104 46 13 54 19 54 39 0 15 -7
26 -20 30 -10 3 -97 -1 -193 -10 -166 -15 -323 -11 -443 11 -21 4 -36 1 -47
-11z"/>
<path d="M2021 3272 c-19 -35 -3 -49 71 -66 84 -19 130 -45 157 -90 20 -31 21
-49 21 -279 0 -187 -3 -247 -12 -250 -18 -6 18 2 44 10 12 3 19 2 16 -3 -5 -7
125 -9 224 -4 3 0 8 116 10 258 3 221 5 261 20 289 22 40 60 70 101 78 40 9
57 22 57 46 0 29 -33 31 -211 15 -159 -16 -310 -12 -448 10 -33 5 -41 3 -50
-14z"/>
<path d="M3216 3273 c-3 -4 -79 -7 -168 -7 -144 -1 -162 -3 -172 -19 -14 -24
15 -47 58 -47 63 0 108 -21 161 -73 80 -81 89 -124 80 -406 -4 -124 -9 -229
-11 -232 -2 -4 -34 2 -70 12 -133 37 -230 52 -250 40 -17 -11 -17 -11 3 -6 12
3 39 3 60 -1 36 -7 37 -8 13 -16 -20 -6 -17 -7 10 -3 19 3 73 -5 120 -16 47
-12 99 -22 115 -24 17 -2 43 -8 59 -14 16 -7 31 -9 34 -6 3 3 8 71 11 152 8
202 15 201 110 -14 41 -93 88 -202 104 -243 15 -41 41 -102 57 -135 15 -33 40
-89 56 -125 15 -36 33 -72 40 -80 6 -8 26 -49 44 -90 48 -110 125 -261 147
-289 13 -16 26 -22 37 -18 10 4 44 63 77 132 33 69 63 125 67 125 4 0 43 -12
87 -26 133 -42 369 -95 353 -78 -4 3 -23 8 -43 11 -20 3 -48 11 -63 19 -15 8
-46 14 -70 14 -30 0 -41 4 -36 12 4 7 3 8 -5 4 -15 -10 -73 3 -66 15 4 5 -1 6
-10 3 -9 -4 -26 -2 -38 4 -12 6 -39 16 -59 22 -21 6 -38 14 -38 18 0 3 20 46
44 96 24 50 47 101 50 114 4 12 13 22 19 22 7 0 72 -16 145 -35 74 -20 154
-35 180 -34 26 1 90 -3 142 -9 52 -7 112 -13 133 -15 l38 -3 -5 80 c-12 174
-29 757 -24 858 7 167 46 224 171 252 46 10 52 15 52 36 l0 25 -180 0 c-99 0
-189 -3 -200 -8 -11 -4 -31 -23 -44 -42 -12 -19 -126 -254 -253 -522 -271
-575 -241 -514 -282 -588 -18 -33 -40 -61 -48 -63 -18 -3 -96 144 -83 156 4 4
10 2 12 -5 2 -7 11 -9 20 -6 11 4 14 2 9 -5 -4 -7 -3 -12 3 -12 5 0 12 4 16
10 3 5 -13 15 -36 21 -22 7 -47 22 -54 33 -8 12 -53 107 -101 211 -280 613
-348 762 -361 781 -7 11 -25 26 -39 32 -27 13 -116 16 -128 5z m1238 -535 c5
-26 26 -522 26 -617 l0 -63 -47 7 c-71 10 -303 66 -303 72 0 16 274 587 292
611 16 18 27 15 32 -10z"/>
<path d="M2128 2583 c18 -2 45 -2 60 0 15 2 0 4 -33 4 -33 0 -45 -2 -27 -4z"/>
<path d="M2608 2574 c40 -13 58 -14 75 -6 20 9 17 11 -19 11 -23 1 -57 3 -75
6 -21 3 -14 -1 19 -11z"/>
<path d="M2030 2570 c20 -13 50 -13 50 0 0 6 -15 10 -32 10 -25 0 -29 -3 -18
-10z"/>
<path d="M1961 2566 c2 -2 18 -6 34 -10 22 -5 26 -4 15 4 -14 9 -59 15 -49 6z"/>
<path d="M2710 2560 c-11 -8 -8 -9 12 -4 15 3 41 1 58 -5 17 -5 38 -7 48 -3
12 4 6 8 -23 14 -56 10 -78 9 -95 -2z"/>
<path d="M1885 2553 c-30 -7 -43 -23 -19 -23 11 0 24 4 30 9 5 5 18 11 29 14
l20 5 -20 0 c-11 0 -29 -2 -40 -5z"/>
<path d="M1790 2530 c-19 -4 -46 -13 -60 -19 l-25 -12 25 6 c14 3 37 8 53 10
15 2 35 9 45 14 19 12 12 12 -38 1z"/>
<path d="M1938 2533 c6 -2 18 -2 25 0 6 3 1 5 -13 5 -14 0 -19 -2 -12 -5z"/>
<path d="M2668 2533 c7 -3 16 -2 19 1 4 3 -2 6 -13 5 -11 0 -14 -3 -6 -6z"/>
<path d="M2730 2523 l-25 -15 25 6 c14 3 28 6 33 6 4 0 7 5 7 10 0 13 -9 11
-40 -7z"/>
<path d="M2800 2519 c0 -5 5 -7 10 -4 6 3 10 8 10 11 0 2 -4 4 -10 4 -5 0 -10
-5 -10 -11z"/>
<path d="M2768 2503 c7 -3 16 -2 19 1 4 3 -2 6 -13 5 -11 0 -14 -3 -6 -6z"/>
<path d="M1625 2480 c-25 -11 1 -11 35 0 20 6 21 8 5 8 -11 0 -29 -3 -40 -8z"/>
<path d="M1590 2455 c7 -8 17 -15 22 -15 5 0 3 7 -6 15 -8 8 -18 15 -22 15 -3
0 -1 -7 6 -15z"/>
<path d="M1555 2450 c3 -5 11 -10 16 -10 6 0 7 5 4 10 -3 6 -11 10 -16 10 -6
0 -7 -4 -4 -10z"/>
<path d="M1657 2449 c7 -7 15 -10 18 -7 3 3 -2 9 -12 12 -14 6 -15 5 -6 -5z"/>
<path d="M1500 2434 l-25 -15 25 5 c14 3 31 6 38 6 7 0 10 5 7 10 -8 13 -15
12 -45 -6z"/>
<path d="M3255 2440 c-3 -6 4 -10 17 -10 13 0 34 -3 48 -5 16 -3 12 0 -10 9
-43 18 -47 18 -55 6z"/>
<path d="M3156 2432 c-2 -4 4 -8 15 -8 10 0 19 4 19 8 0 4 -6 8 -14 8 -8 0
-17 -4 -20 -8z"/>
<path d="M3377 2401 c12 -12 29 -21 38 -21 8 0 24 -9 35 -20 11 -11 20 -17 20
-12 -1 17 -19 32 -65 52 -50 21 -50 21 -28 1z"/>
<path d="M1685 2330 c3 -5 8 -10 11 -10 2 0 4 5 4 10 0 6 -5 10 -11 10 -5 0
-7 -4 -4 -10z"/>
<path d="M1753 2325 c0 -8 4 -12 9 -9 5 3 6 10 3 15 -9 13 -12 11 -12 -6z"/>
<path d="M2245 2331 c-3 -7 0 -8 9 -5 14 5 16 -21 16 -237 0 -134 -5 -260 -10
-280 -18 -64 -51 -102 -110 -126 -39 -15 -56 -28 -58 -42 -5 -34 31 -39 168
-24 125 14 279 11 443 -7 92 -11 130 -1 125 32 -3 19 -13 24 -69 34 -114 21
-149 50 -184 149 -14 40 -19 96 -23 273 l-5 222 -66 1 c-36 0 -89 4 -118 8
-31 4 -50 4 -46 -2 5 -8 -15 -4 -53 10 -7 2 -15 0 -19 -6z"/>
<path d="M2785 2330 c3 -5 10 -10 16 -10 5 0 9 5 9 10 0 6 -7 10 -16 10 -8 0
-12 -4 -9 -10z"/>
<path d="M1917 2318 c2 -5 20 -8 40 -8 20 0 33 3 29 7 -10 10 -75 10 -69 1z"/>
<path d="M2000 2323 c0 -5 39 -7 87 -5 138 4 148 9 26 11 -62 0 -113 -2 -113
-6z"/>
<path d="M2572 2322 c-9 -6 8 -12 50 -16 34 -4 84 -9 111 -13 31 -4 47 -2 47
5 0 6 -6 9 -13 6 -12 -4 -121 9 -162 21 -11 3 -26 1 -33 -3z"/>
<path d="M1260 2310 c-13 -8 -12 -10 3 -10 9 0 17 5 17 10 0 12 -1 12 -20 0z"/>
<path d="M1608 2303 c7 -3 16 -2 19 1 4 3 -2 6 -13 5 -11 0 -14 -3 -6 -6z"/>
<path d="M1767 2299 c-9 -5 -21 -8 -26 -5 -8 6 -144 -24 -139 -30 7 -6 218 30
218 38 0 11 -31 10 -53 -3z"/>
<path d="M1853 2303 c9 -2 25 -2 35 0 9 3 1 5 -18 5 -19 0 -27 -2 -17 -5z"/>
<path d="M2815 2280 c44 -11 65 -11 65 0 0 6 -21 9 -47 9 -43 -1 -45 -2 -18
-9z"/>
<path d="M1072 2231 c-46 -27 -91 -56 -101 -65 -10 -9 -22 -16 -28 -16 -15 0
-125 -81 -119 -88 4 -3 20 7 36 23 17 16 30 25 30 20 0 -5 11 2 25 15 14 13
25 20 25 16 0 -4 21 9 46 29 52 39 67 44 57 18 -6 -15 -5 -16 9 -3 9 8 12 17
7 20 -4 3 16 20 46 38 30 18 60 30 67 26 7 -4 8 -3 4 4 -10 17 -13 16 -104
-37z"/>
<path d="M2890 2270 c0 -5 9 -10 20 -10 11 0 20 5 20 10 0 6 -9 10 -20 10 -11
0 -20 -4 -20 -10z"/>
<path d="M1480 2248 c0 -10 35 -8 75 2 24 7 20 8 -22 7 -29 -1 -53 -5 -53 -9z"/>
<path d="M3006 2241 c39 -10 88 -24 109 -31 l38 -13 -7 -145 c-4 -79 -12 -167
-17 -194 -16 -74 -64 -136 -131 -172 -56 -30 -73 -56 -47 -72 6 -3 66 -1 133
6 104 11 142 11 252 -2 130 -15 174 -11 174 16 0 20 -18 32 -82 56 -72 27
-131 88 -153 162 -10 32 -18 100 -20 172 -3 126 0 152 19 138 13 -11 63 -9 73
3 5 4 -8 5 -29 2 -20 -3 -39 -3 -42 0 -3 3 -19 7 -35 8 -16 1 -48 12 -72 24
-47 22 -187 62 -216 60 -10 0 14 -9 53 -18z"/>
<path d="M3130 2254 c0 -6 7 -17 15 -24 10 -9 15 -9 15 -1 0 6 7 11 15 11 8 0
15 5 15 10 0 12 -22 9 -32 -5 -5 -6 -12 -4 -18 5 -5 8 -10 10 -10 4z"/>
<path d="M6365 2240 c-8 -13 5 -13 25 0 13 8 13 10 -2 10 -9 0 -20 -4 -23 -10z"/>
<path d="M1445 2230 c-30 -13 -235 -72 -270 -78 -16 -3 -46 -5 -65 -5 -24 1
-29 -1 -17 -6 17 -6 16 -8 -8 -19 -30 -14 -48 -7 -25 9 11 7 6 8 -15 3 -35 -8
-45 -14 -22 -14 9 0 19 -5 22 -10 4 -6 3 -9 -2 -8 -13 3 -53 -13 -53 -22 0 -8
51 9 143 49 32 14 47 17 47 8 4 -87 -3 -300 -10 -328 -17 -63 -51 -102 -110
-126 -38 -15 -56 -28 -58 -42 -6 -36 24 -39 185 -23 139 14 169 14 330 0 193
-17 227 -13 221 24 -3 19 -13 24 -71 34 -37 7 -84 23 -103 34 -76 47 -108 176
-102 409 2 66 3 121 3 120 0 0 -9 -4 -20 -9z"/>
<path d="M1308 2213 c7 -3 16 -2 19 1 4 3 -2 6 -13 5 -11 0 -14 -3 -6 -6z"/>
<path d="M1083 2197 c0 -7 9 -13 19 -13 10 0 18 1 18 3 0 1 -8 7 -18 12 -13 7
-19 6 -19 -2z"/>
<path d="M6205 2200 c-3 -5 -1 -10 4 -10 6 0 11 5 11 10 0 6 -2 10 -4 10 -3 0
-8 -4 -11 -10z"/>
<path d="M5137 2184 c-9 -9 -9 -57 -1 -117 l6 -45 53 1 c40 2 51 5 43 14 -5 7
-20 43 -33 80 -17 47 -30 69 -42 71 -11 2 -22 0 -26 -4z"/>
<path d="M3980 2171 c0 -5 6 -14 14 -20 10 -9 15 -8 19 3 3 8 -1 17 -9 20 -21
8 -24 8 -24 -3z"/>
<path d="M6243 2153 c0 -8 6 -9 19 -2 10 5 18 11 18 12 0 2 -8 3 -18 3 -10 0
-19 -6 -19 -13z"/>
<path d="M1005 2150 c-3 -6 1 -7 9 -4 18 7 21 14 7 14 -6 0 -13 -4 -16 -10z"/>
<path d="M3311 2145 c2 -2 51 -21 109 -43 58 -22 122 -48 143 -56 20 -9 37
-14 37 -12 0 8 -81 46 -98 46 -15 0 -15 2 -2 11 13 9 13 10 -2 6 -18 -6 -88
13 -88 24 0 4 -12 10 -27 14 -33 9 -77 15 -72 10z"/>
<path d="M3425 2130 c3 -5 8 -10 11 -10 2 0 4 5 4 10 0 6 -5 10 -11 10 -5 0
-7 -4 -4 -10z"/>
<path d="M5850 2120 c-37 -10 -54 -18 -40 -19 14 0 42 4 64 10 27 8 41 8 49 0
6 -6 16 -11 22 -11 5 0 1 6 -10 12 -19 11 -19 11 0 19 40 15 -16 8 -85 -11z"/>
<path d="M939 2112 c11 -8 10 -11 -5 -14 -17 -3 -17 -4 2 -10 16 -4 21 -1 20
10 -2 9 -9 18 -17 20 -12 3 -12 2 0 -6z"/>
<path d="M5650 2079 c-86 -17 -89 -18 -32 -14 46 3 61 2 56 -7 -4 -7 -3 -8 5
-4 6 4 9 12 6 17 -4 5 6 9 22 9 15 0 35 5 43 10 19 12 16 12 -100 -11z"/>
<path d="M6105 2090 c3 -5 11 -10 16 -10 6 0 7 5 4 10 -3 6 -11 10 -16 10 -6
0 -7 -4 -4 -10z"/>
<path d="M6190 2085 c-12 -15 -151 -95 -164 -95 -4 0 -5 4 -2 9 3 5 -1 11 -9
14 -9 4 -12 1 -9 -8 7 -18 -157 -98 -200 -98 -17 0 -25 -2 -17 -5 14 -5 -50
-39 -86 -45 -10 -2 -31 -9 -46 -15 -16 -7 -32 -12 -37 -12 -5 0 -11 -4 -14 -9
-8 -13 65 11 181 57 135 55 152 63 197 90 l39 24 -6 -47 c-14 -97 -97 -202
-197 -249 -35 -16 -63 -21 -125 -20 -84 1 -132 17 -214 69 -39 24 -46 25 -99
16 -121 -21 -138 -23 -157 -21 -23 2 -12 3 -175 -9 l-125 -9 148 3 c121 2 147
0 147 -11 0 -8 10 -19 23 -24 57 -24 342 -100 399 -106 245 -24 495 173 540
426 6 36 18 71 27 78 8 6 10 12 4 12 -6 0 -16 -7 -23 -15z"/>
<path d="M859 2063 c-13 -16 -12 -17 4 -4 9 7 17 15 17 17 0 8 -8 3 -21 -13z"/>
<path d="M920 2050 c-39 -21 -54 -25 -45 -10 3 6 -1 7 -9 4 -9 -3 -14 -10 -11
-14 3 -5 -17 -20 -45 -34 -28 -14 -58 -33 -66 -41 -20 -19 -43 -19 -40 0 3 19
12 28 34 30 31 2 64 26 58 41 -5 12 -1 14 16 9 18 -6 19 -5 7 8 -12 13 -17 12
-44 -6 -16 -12 -32 -24 -35 -27 -3 -3 -30 -24 -60 -47 -30 -23 -80 -67 -110
-98 l-55 -57 90 53 c50 29 92 55 95 58 7 8 53 33 180 98 58 29 98 53 90 53 -8
-1 -31 -9 -50 -20z m-140 -35 c-7 -8 -18 -15 -24 -15 -6 0 -2 7 8 15 25 19 32
19 16 0z m-95 -65 c-3 -5 0 -10 7 -10 17 -1 -30 -40 -47 -40 -7 0 -18 -7 -25
-16 -8 -8 -23 -20 -34 -26 -26 -13 -21 -8 28 31 21 17 35 31 31 31 -4 0 3 9
16 20 27 22 33 24 24 10z"/>
<path d="M4270 2061 c8 -6 28 -11 44 -11 39 0 31 6 -19 14 -29 5 -36 4 -25 -3z"/>
<path d="M5505 2046 c10 -7 27 -11 37 -8 27 7 11 22 -25 22 -28 0 -29 -1 -12
-14z"/>
<path d="M5360 2043 c-30 -2 -59 -9 -65 -15 -7 -7 1 -8 27 -4 20 4 67 7 103 7
36 1 63 5 59 10 -5 9 -15 9 -124 2z"/>
<path d="M5628 2043 c7 -3 16 -2 19 1 4 3 -2 6 -13 5 -11 0 -14 -3 -6 -6z"/>
<path d="M5728 2043 c6 -2 18 -2 25 0 6 3 1 5 -13 5 -14 0 -19 -2 -12 -5z"/>
<path d="M4290 2036 c0 -2 7 -6 15 -10 8 -3 15 -1 15 4 0 6 -7 10 -15 10 -8 0
-15 -2 -15 -4z"/>
<path d="M4460 2036 c0 -2 9 -6 20 -9 11 -3 18 -1 14 4 -5 9 -34 13 -34 5z"/>
<path d="M4793 2018 c7 -4 84 -7 172 -6 184 1 165 6 -42 10 -77 2 -136 0 -130
-4z"/>
<path d="M5925 2010 c3 -5 8 -10 11 -10 2 0 4 5 4 10 0 6 -5 10 -11 10 -5 0
-7 -4 -4 -10z"/>
<path d="M4066 1953 c-6 -14 -5 -15 5 -6 7 7 10 15 7 18 -3 3 -9 -2 -12 -12z"/>
<path d="M5510 1830 c0 -5 5 -10 11 -10 5 0 7 5 4 10 -3 6 -8 10 -11 10 -2 0
-4 -4 -4 -10z"/>
<path d="M4268 1823 c7 -3 16 -2 19 1 4 3 -2 6 -13 5 -11 0 -14 -3 -6 -6z"/>
<path d="M5460 1820 c0 -5 5 -10 11 -10 5 0 7 5 4 10 -3 6 -8 10 -11 10 -2 0
-4 -4 -4 -10z"/>
<path d="M5545 1810 c-4 -6 -16 -8 -28 -5 -19 5 -20 4 -5 -5 13 -8 26 -7 50 4
27 12 29 15 11 15 -12 1 -25 -4 -28 -9z"/>
<path d="M5468 1783 c6 -2 18 -2 25 0 6 3 1 5 -13 5 -14 0 -19 -2 -12 -5z"/>
<path d="M5277 1769 c7 -7 15 -10 18 -7 3 3 -2 9 -12 12 -14 6 -15 5 -6 -5z"/>
<path d="M4466 1755 c9 -22 -14 -44 -76 -74 -39 -19 -55 -32 -55 -46 0 -23 3
-23 238 -10 94 6 185 4 281 -5 164 -15 196 -11 196 25 0 24 -6 28 -70 40 -19
4 -44 13 -55 19 -11 7 -71 16 -132 19 -147 8 -294 26 -315 37 -13 8 -16 6 -12
-5z"/>
<path d="M4533 1763 c9 -2 23 -2 30 0 6 3 -1 5 -18 5 -16 0 -22 -2 -12 -5z"/>
<path d="M4915 1759 c-15 -7 -11 -7 14 -3 25 5 32 3 26 -6 -5 -9 -4 -11 4 -6
13 9 5 26 -12 25 -7 0 -21 -5 -32 -10z"/>
<path d="M5128 1763 c7 -3 16 -2 19 1 4 3 -2 6 -13 5 -11 0 -14 -3 -6 -6z"/>
</g>
</svg>
